<svg width="756" height="378" xmlns="http://www.w3.org/2000/svg" xmlns:xlink="http://www.w3.org/1999/xlink" overflow="hidden"><defs><clipPath id="clip0"><rect x="0" y="0" width="756" height="378"/></clipPath><linearGradient x1="381.974" y1="49.2148" x2="508.501" y2="370.532" gradientUnits="userSpaceOnUse" spreadMethod="reflect" id="fill1"><stop offset="0" stop-color="#10B981"/><stop offset="0.00900901" stop-color="#11B882"/><stop offset="0.018018" stop-color="#12B884"/><stop offset="0.027027" stop-color="#14B886"/><stop offset="0.036036" stop-color="#15B888"/><stop offset="0.045045" stop-color="#16B88A"/><stop offset="0.0540541" stop-color="#18B88C"/><stop offset="0.0630631" stop-color="#19B88D"/><stop offset="0.0720721" stop-color="#1AB88F"/><stop offset="0.0810811" stop-color="#1CB891"/><stop offset="0.0900901" stop-color="#1DB893"/><stop offset="0.0990991" stop-color="#1EB794"/><stop offset="0.108108" stop-color="#20B796"/><stop offset="0.117117" stop-color="#21B798"/><stop offset="0.126126" stop-color="#22B79A"/><stop offset="0.135135" stop-color="#23B79B"/><stop offset="0.144144" stop-color="#25B69D"/><stop offset="0.153153" stop-color="#26B69E"/><stop offset="0.162162" stop-color="#27B6A0"/><stop offset="0.171171" stop-color="#28B5A2"/><stop offset="0.18018" stop-color="#29B5A3"/><stop offset="0.189189" stop-color="#2AB5A5"/><stop offset="0.198198" stop-color="#2CB5A6"/><stop offset="0.207207" stop-color="#2DB4A8"/><stop offset="0.216216" stop-color="#2EB4AA"/><stop offset="0.225225" stop-color="#2FB3AB"/><stop offset="0.234234" stop-color="#30B3AD"/><stop offset="0.243243" stop-color="#31B3AE"/><stop offset="0.252252" stop-color="#32B2B0"/><stop offset="0.261261" stop-color="#33B2B1"/><stop offset="0.27027" stop-color="#35B1B2"/><stop offset="0.279279" stop-color="#36B1B4"/><stop offset="0.288288" stop-color="#37B0B5"/><stop offset="0.297297" stop-color="#38B0B7"/><stop offset="0.306306" stop-color="#39AFB8"/><stop offset="0.315315" stop-color="#3AAFB9"/><stop offset="0.324324" stop-color="#3BAEBB"/><stop offset="0.333333" stop-color="#3CAEBC"/><stop offset="0.342342" stop-color="#3DADBD"/><stop offset="0.351351" stop-color="#3EADBF"/><stop offset="0.36036" stop-color="#3FACC0"/><stop offset="0.369369" stop-color="#40ACC1"/><stop offset="0.378378" stop-color="#40ABC3"/><stop offset="0.387387" stop-color="#41AAC4"/><stop offset="0.396396" stop-color="#42AAC5"/><stop offset="0.405405" stop-color="#43A9C6"/><stop offset="0.414414" stop-color="#44A9C7"/><stop offset="0.423423" stop-color="#45A8C9"/><stop offset="0.432432" stop-color="#46A7CA"/><stop offset="0.441441" stop-color="#47A7CB"/><stop offset="0.45045" stop-color="#47A6CC"/><stop offset="0.459459" stop-color="#48A5CD"/><stop offset="0.468468" stop-color="#49A4CE"/><stop offset="0.477477" stop-color="#4AA4CF"/><stop offset="0.486486" stop-color="#4BA3D0"/><stop offset="0.495495" stop-color="#4BA2D1"/><stop offset="0.504505" stop-color="#4CA1D2"/><stop offset="0.513514" stop-color="#4DA1D3"/><stop offset="0.522523" stop-color="#4EA0D4"/><stop offset="0.531532" stop-color="#4E9FD5"/><stop offset="0.540541" stop-color="#4F9ED6"/><stop offset="0.54955" stop-color="#509DD7"/><stop offset="0.558559" stop-color="#519DD8"/><stop offset="0.567568" stop-color="#519CD9"/><stop offset="0.576577" stop-color="#529BDA"/><stop offset="0.585586" stop-color="#539ADB"/><stop offset="0.594595" stop-color="#5399DC"/><stop offset="0.603604" stop-color="#5498DD"/><stop offset="0.612613" stop-color="#5497DE"/><stop offset="0.621622" stop-color="#5596DE"/><stop offset="0.630631" stop-color="#5696DF"/><stop offset="0.63964" stop-color="#5695E0"/><stop offset="0.648649" stop-color="#5794E1"/><stop offset="0.657658" stop-color="#5793E1"/><stop offset="0.666667" stop-color="#5892E2"/><stop offset="0.675676" stop-color="#5891E3"/><stop offset="0.684685" stop-color="#5990E4"/><stop offset="0.693694" stop-color="#598FE4"/><stop offset="0.702703" stop-color="#5A8EE5"/><stop offset="0.711712" stop-color="#5A8DE6"/><stop offset="0.720721" stop-color="#5B8CE6"/><stop offset="0.72973" stop-color="#5B8BE7"/><stop offset="0.738739" stop-color="#5C89E7"/><stop offset="0.747748" stop-color="#5C88E8"/><stop offset="0.756757" stop-color="#5D87E9"/><stop offset="0.765766" stop-color="#5D86E9"/><stop offset="0.774775" stop-color="#5D85EA"/><stop offset="0.783784" stop-color="#5E84EA"/><stop offset="0.792793" stop-color="#5E83EB"/><stop offset="0.801802" stop-color="#5F82EB"/><stop offset="0.810811" stop-color="#5F80EC"/><stop offset="0.81982" stop-color="#5F7FEC"/><stop offset="0.828829" stop-color="#5F7EEC"/><stop offset="0.837838" stop-color="#607DED"/><stop offset="0.846847" stop-color="#607CED"/><stop offset="0.855856" stop-color="#607BEE"/><stop offset="0.864865" stop-color="#6179EE"/><stop offset="0.873874" stop-color="#6178EE"/><stop offset="0.882883" stop-color="#6177EE"/><stop offset="0.891892" stop-color="#6176EF"/><stop offset="0.900901" stop-color="#6174EF"/><stop offset="0.90991" stop-color="#6273EF"/><stop offset="0.918919" stop-color="#6272EF"/><stop offset="0.927928" stop-color="#6270F0"/><stop offset="0.936937" stop-color="#626FF0"/><stop offset="0.945946" stop-color="#626EF0"/><stop offset="0.954955" stop-color="#626CF0"/><stop offset="0.963964" stop-color="#626BF0"/><stop offset="0.972973" stop-color="#626AF0"/><stop offset="0.981982" stop-color="#6268F0"/><stop offset="0.990991" stop-color="#6267F0"/><stop offset="1" stop-color="#6366F1"/></linearGradient><linearGradient x1="-30.7223" y1="127.511" x2="285.094" y2="281.998" gradientUnits="userSpaceOnUse" spreadMethod="reflect" id="fill2"><stop offset="0" stop-color="#10B981"/><stop offset="0.00900901" stop-color="#11B882"/><stop offset="0.018018" stop-color="#12B884"/><stop offset="0.027027" stop-color="#14B886"/><stop offset="0.036036" stop-color="#15B888"/><stop offset="0.045045" stop-color="#16B88A"/><stop offset="0.0540541" stop-color="#18B88C"/><stop offset="0.0630631" stop-color="#19B88D"/><stop offset="0.0720721" stop-color="#1AB88F"/><stop offset="0.0810811" stop-color="#1CB891"/><stop offset="0.0900901" stop-color="#1DB893"/><stop offset="0.0990991" stop-color="#1EB794"/><stop offset="0.108108" stop-color="#20B796"/><stop offset="0.117117" stop-color="#21B798"/><stop offset="0.126126" stop-color="#22B79A"/><stop offset="0.135135" stop-color="#23B79B"/><stop offset="0.144144" stop-color="#25B69D"/><stop offset="0.153153" stop-color="#26B69E"/><stop offset="0.162162" stop-color="#27B6A0"/><stop offset="0.171171" stop-color="#28B5A2"/><stop offset="0.18018" stop-color="#29B5A3"/><stop offset="0.189189" stop-color="#2AB5A5"/><stop offset="0.198198" stop-color="#2CB5A6"/><stop offset="0.207207" stop-color="#2DB4A8"/><stop offset="0.216216" stop-color="#2EB4AA"/><stop offset="0.225225" stop-color="#2FB3AB"/><stop offset="0.234234" stop-color="#30B3AD"/><stop offset="0.243243" stop-color="#31B3AE"/><stop offset="0.252252" stop-color="#32B2B0"/><stop offset="0.261261" stop-color="#33B2B1"/><stop offset="0.27027" stop-color="#35B1B2"/><stop offset="0.279279" stop-color="#36B1B4"/><stop offset="0.288288" stop-color="#37B0B5"/><stop offset="0.297297" stop-color="#38B0B7"/><stop offset="0.306306" stop-color="#39AFB8"/><stop offset="0.315315" stop-color="#3AAFB9"/><stop offset="0.324324" stop-color="#3BAEBB"/><stop offset="0.333333" stop-color="#3CAEBC"/><stop offset="0.342342" stop-color="#3DADBD"/><stop offset="0.351351" stop-color="#3EADBF"/><stop offset="0.36036" stop-color="#3FACC0"/><stop offset="0.369369" stop-color="#40ACC1"/><stop offset="0.378378" stop-color="#40ABC3"/><stop offset="0.387387" stop-color="#41AAC4"/><stop offset="0.396396" stop-color="#42AAC5"/><stop offset="0.405405" stop-color="#43A9C6"/><stop offset="0.414414" stop-color="#44A9C7"/><stop offset="0.423423" stop-color="#45A8C9"/><stop offset="0.432432" stop-color="#46A7CA"/><stop offset="0.441441" stop-color="#47A7CB"/><stop offset="0.45045" stop-color="#47A6CC"/><stop offset="0.459459" stop-color="#48A5CD"/><stop offset="0.468468" stop-color="#49A4CE"/><stop offset="0.477477" stop-color="#4AA4CF"/><stop offset="0.486486" stop-color="#4BA3D0"/><stop offset="0.495495" stop-color="#4BA2D1"/><stop offset="0.504505" stop-color="#4CA1D2"/><stop offset="0.513514" stop-color="#4DA1D3"/><stop offset="0.522523" stop-color="#4EA0D4"/><stop offset="0.531532" stop-color="#4E9FD5"/><stop offset="0.540541" stop-color="#4F9ED6"/><stop offset="0.54955" stop-color="#509DD7"/><stop offset="0.558559" stop-color="#519DD8"/><stop offset="0.567568" stop-color="#519CD9"/><stop offset="0.576577" stop-color="#529BDA"/><stop offset="0.585586" stop-color="#539ADB"/><stop offset="0.594595" stop-color="#5399DC"/><stop offset="0.603604" stop-color="#5498DD"/><stop offset="0.612613" stop-color="#5497DE"/><stop offset="0.621622" stop-color="#5596DE"/><stop offset="0.630631" stop-color="#5696DF"/><stop offset="0.63964" stop-color="#5695E0"/><stop offset="0.648649" stop-color="#5794E1"/><stop offset="0.657658" stop-color="#5793E1"/><stop offset="0.666667" stop-color="#5892E2"/><stop offset="0.675676" stop-color="#5891E3"/><stop offset="0.684685" stop-color="#5990E4"/><stop offset="0.693694" stop-color="#598FE4"/><stop offset="0.702703" stop-color="#5A8EE5"/><stop offset="0.711712" stop-color="#5A8DE6"/><stop offset="0.720721" stop-color="#5B8CE6"/><stop offset="0.72973" stop-color="#5B8BE7"/><stop offset="0.738739" stop-color="#5C89E7"/><stop offset="0.747748" stop-color="#5C88E8"/><stop offset="0.756757" stop-color="#5D87E9"/><stop offset="0.765766" stop-color="#5D86E9"/><stop offset="0.774775" stop-color="#5D85EA"/><stop offset="0.783784" stop-color="#5E84EA"/><stop offset="0.792793" stop-color="#5E83EB"/><stop offset="0.801802" stop-color="#5F82EB"/><stop offset="0.810811" stop-color="#5F80EC"/><stop offset="0.81982" stop-color="#5F7FEC"/><stop offset="0.828829" stop-color="#5F7EEC"/><stop offset="0.837838" stop-color="#607DED"/><stop offset="0.846847" stop-color="#607CED"/><stop offset="0.855856" stop-color="#607BEE"/><stop offset="0.864865" stop-color="#6179EE"/><stop offset="0.873874" stop-color="#6178EE"/><stop offset="0.882883" stop-color="#6177EE"/><stop offset="0.891892" stop-color="#6176EF"/><stop offset="0.900901" stop-color="#6174EF"/><stop offset="0.90991" stop-color="#6273EF"/><stop offset="0.918919" stop-color="#6272EF"/><stop offset="0.927928" stop-color="#6270F0"/><stop offset="0.936937" stop-color="#626FF0"/><stop offset="0.945946" stop-color="#626EF0"/><stop offset="0.954955" stop-color="#626CF0"/><stop offset="0.963964" stop-color="#626BF0"/><stop offset="0.972973" stop-color="#626AF0"/><stop offset="0.981982" stop-color="#6268F0"/><stop offset="0.990991" stop-color="#6267F0"/><stop offset="1" stop-color="#6366F1"/></linearGradient></defs><g clip-path="url(#clip0)"><rect x="0" y="0" width="756" height="377.917" fill="#FFFFFF" fill-opacity="0"/><path d="M298.393 245.145C299.013 245.869 300.123 247.031 301.725 248.632 303.327 250.233 305.419 252.274 308.003 254.753 306.763 256.51 305.368 258.292 303.818 260.1 302.268 261.908 300.563 263.741 298.703 265.601 296.223 263.638 294.104 261.83 292.348 260.177 290.591 258.524 289.144 257.078 288.008 255.838 289.661 254.288 291.366 252.61 293.123 250.802 294.879 248.994 296.636 247.108 298.393 245.145ZM319.938 242.976C320.351 243.286 321.333 244.241 322.883 245.843 324.433 247.444 326.654 249.691 329.548 252.584 328.514 254.03 327.223 255.657 325.673 257.465 324.123 259.273 322.314 261.21 320.248 263.276 315.804 259.764 312.291 256.561 309.708 253.669 312.704 250.982 316.114 247.418 319.938 242.976ZM442.418 192.767C440.454 192.767 438.568 193.387 436.76 194.627 434.952 195.866 433.479 197.364 432.343 199.121 431.206 200.877 430.638 202.685 430.638 204.544 430.638 207.644 431.929 210.097 434.513 211.905 437.096 213.713 440.868 214.979 445.828 215.702 447.378 215.908 449.496 216.089 452.183 216.244 454.869 216.399 458.176 216.58 462.103 216.787 460.863 211.931 459.235 207.695 457.22 204.079 455.205 200.464 452.932 197.674 450.4 195.711 447.868 193.748 445.208 192.767 442.418 192.767ZM248.418 192.767C246.454 192.767 244.568 193.387 242.76 194.627 240.952 195.866 239.479 197.364 238.343 199.121 237.206 200.877 236.638 202.685 236.638 204.544 236.638 207.644 237.929 210.097 240.513 211.905 243.096 213.713 246.868 214.979 251.828 215.702 253.378 215.908 255.496 216.089 258.183 216.244 260.869 216.399 264.176 216.58 268.103 216.787 266.863 211.931 265.235 207.695 263.22 204.079 261.205 200.464 258.932 197.674 256.4 195.711 253.868 193.748 251.208 192.767 248.418 192.767ZM445.518 176.031C449.754 176.031 453.758 177.942 457.53 181.764 461.302 185.587 464.376 190.649 466.753 196.951 467.889 200.05 468.793 203.253 469.465 206.559 470.137 209.865 470.576 213.326 470.783 216.942L477.513 216.942C482.989 216.942 487.846 216.761 492.083 216.399 496.319 216.038 499.678 215.185 502.158 213.842 503.914 212.912 505.413 211.414 506.653 209.348 507.893 207.282 509.546 204.234 511.613 200.205 512.853 197.623 514.015 195.995 515.1 195.324 516.185 194.652 517.503 194.317 519.053 194.317 521.119 194.317 522.928 194.936 524.478 196.176 523.651 198.242 522.773 200.309 521.843 202.375 520.913 204.441 520.06 206.352 519.285 208.109 518.51 209.865 517.864 211.26 517.348 212.293 520.138 213.946 522.953 215.134 525.795 215.857 527.216 216.218 528.669 216.49 530.154 216.67L534.236 216.913 538.996 216.729C540.584 216.586 541.934 216.373 543.045 216.089 545.267 215.521 547.153 214.514 548.703 213.067 549.529 212.241 550.278 211.389 550.95 210.51 551.622 209.632 552.371 208.496 553.198 207.101 554.024 205.707 555.161 203.821 556.608 201.445 557.124 200.412 557.925 199.585 559.01 198.966 560.095 198.346 561.258 198.036 562.498 198.036 563.944 198.036 565.443 198.552 566.993 199.585 565.339 203.821 563.918 207.36 562.73 210.201 561.542 213.042 560.586 215.237 559.863 216.787 561.103 216.993 562.601 217.2 564.358 217.406 566.114 217.613 568.026 217.716 570.093 217.716 572.263 217.716 574.226 217.587 575.983 217.329 577.739 217.071 579.599 216.683 581.563 216.167 582.079 215.237 582.725 213.765 583.5 211.75 584.275 209.736 585.179 207.308 586.213 204.467 587.246 201.626 588.383 198.552 589.623 195.246 590.346 193.697 591.276 192.509 592.413 191.682 593.549 190.856 594.996 190.442 596.753 190.442 598.716 190.442 600.369 190.959 601.713 191.992 600.576 194.575 599.465 197.571 598.38 200.98 597.295 204.389 596.184 208.005 595.048 211.828 598.044 213.274 601.015 214.436 603.96 215.314 606.905 216.193 609.979 216.89 613.183 217.406 616.386 217.923 619.848 218.285 623.568 218.491 622.328 215.908 621.062 213.274 619.77 210.588 618.478 207.902 617.316 205.319 616.283 202.84 615.249 200.36 614.397 198.139 613.725 196.176 613.053 194.213 612.718 192.715 612.718 191.682 612.718 189.306 613.958 186.723 616.438 183.934 618.918 181.144 621.966 178.768 625.583 176.805 626.926 183.624 628.063 189.358 628.993 194.007 629.923 198.656 630.646 202.504 631.163 205.552 631.679 208.599 631.938 211.053 631.938 212.912 631.938 214.462 631.602 216.554 630.93 219.189 630.258 221.823 629.432 224.483 628.45 227.169 627.468 229.855 626.513 232.128 625.583 233.988 619.279 233.988 613.131 233.342 607.138 232.051 601.144 230.759 595.409 228.926 589.932 226.549 589.416 227.686 588.848 228.771 588.228 229.804 587.711 230.63 586.445 231.353 584.43 231.973 582.415 232.593 580.038 233.084 577.3 233.445 574.562 233.807 571.798 233.988 569.008 233.988 566.218 233.988 563.221 233.549 560.018 232.671 556.814 231.792 553.714 230.579 550.718 229.029 548.858 230.269 546.378 231.25 543.278 231.973 541.728 232.335 540.139 232.606 538.511 232.787L534.94 232.981 534.708 233.058 534.086 233.027 533.513 233.058 533.301 232.988 531.566 232.901C524.322 232.166 517.67 228.861 511.613 222.985L509.908 225.31C508.358 227.273 506.084 228.822 503.088 229.959 500.091 231.095 496.448 231.896 492.16 232.361 490.016 232.593 487.723 232.767 485.282 232.884L479.603 233.011 479.463 233.058 477.513 233.058 469.543 233.058C467.786 239.567 464.996 245.275 461.173 250.182 457.349 255.089 452.958 258.782 447.998 261.262 443.348 263.535 438.543 264.671 433.583 264.671 432.033 264.671 429.888 264.103 427.15 262.966 424.412 261.83 421.544 260.358 418.548 258.55 415.551 256.742 412.864 254.857 410.488 252.894L412.968 246.85C415.758 247.676 418.625 248.296 421.57 248.71 424.515 249.123 427.538 249.329 430.638 249.329 437.044 249.329 442.831 247.883 447.998 244.99 453.164 242.098 457.298 238.069 460.398 232.903 455.748 232.593 451.718 232.283 448.308 231.973 444.898 231.663 442.159 231.25 440.093 230.734 434.203 229.287 429.914 226.989 427.228 223.838 424.541 220.687 423.198 216.218 423.198 210.433 423.198 204.958 424.283 199.508 426.453 194.084 428.623 188.66 431.464 184.295 434.978 180.99 438.491 177.684 442.004 176.031 445.518 176.031ZM323.968 171.537C325.414 178.768 326.603 184.58 327.533 188.97 328.463 193.361 329.134 196.899 329.548 199.585 329.961 202.271 330.168 204.648 330.168 206.714 330.168 208.883 329.625 211.544 328.54 214.695 327.455 217.846 326.034 221.126 324.278 224.535 321.488 226.188 317.871 227.66 313.428 228.951 308.984 230.243 304.153 231.25 298.935 231.973 296.326 232.335 293.736 232.606 291.166 232.787L285.695 232.981 285.463 233.058 283.513 233.058 275.543 233.058C273.786 239.567 270.996 245.275 267.173 250.182 263.349 255.089 258.958 258.782 253.998 261.262 249.348 263.535 244.543 264.671 239.583 264.671 238.033 264.671 235.888 264.103 233.15 262.966 230.412 261.83 227.544 260.358 224.548 258.55 221.551 256.742 218.864 254.857 216.488 252.894L218.968 246.85C221.758 247.676 224.625 248.296 227.57 248.71 230.515 249.123 233.538 249.329 236.638 249.329 243.044 249.329 248.831 247.883 253.998 244.99 259.164 242.098 263.298 238.069 266.398 232.903 261.748 232.593 257.718 232.283 254.308 231.973 250.898 231.663 248.159 231.25 246.093 230.734 240.203 229.287 235.914 226.989 233.228 223.838 230.541 220.687 229.198 216.218 229.198 210.433 229.198 204.958 230.283 199.508 232.453 194.084 234.623 188.66 237.464 184.295 240.978 180.99 244.491 177.684 248.004 176.031 251.518 176.031 255.754 176.031 259.758 177.942 263.53 181.764 267.302 185.587 270.376 190.649 272.753 196.951 273.889 200.05 274.793 203.253 275.465 206.559 276.137 209.865 276.576 213.326 276.783 216.942L283.513 216.942C288.886 216.942 294.078 216.735 299.09 216.322 304.102 215.908 308.597 215.314 312.575 214.54 316.553 213.765 319.576 212.912 321.643 211.983 320.816 209.71 319.705 207.127 318.31 204.234 316.915 201.342 315.701 198.759 314.668 196.486 313.634 194.213 312.782 192.276 312.11 190.675 311.438 189.074 311.103 187.653 311.103 186.413 311.103 184.037 312.343 181.429 314.823 178.588 317.303 175.747 320.351 173.396 323.968 171.537ZM381.308 166.888C382.134 169.47 383.142 172.286 384.33 175.333 385.518 178.381 386.707 181.403 387.895 184.399 389.083 187.395 390.091 189.978 390.918 192.147 392.364 195.866 393.604 199.327 394.638 202.53 395.671 205.732 396.188 208.677 396.188 211.363 396.188 212.293 395.929 213.739 395.413 215.702 394.896 217.665 394.224 219.731 393.398 221.9 392.571 224.07 391.693 226.085 390.763 227.944 387.043 229.804 382.677 231.276 377.665 232.361 372.653 233.445 367.409 233.988 361.933 233.988 348.499 233.988 341.783 230.217 341.783 222.675 341.783 220.609 342.144 218.543 342.868 216.477 343.591 214.41 344.573 212.758 345.813 211.518 348.396 213.584 351.341 215.134 354.648 216.167 357.954 217.2 362.036 217.716 366.893 217.716 373.713 217.716 380.584 216.632 387.508 214.462 386.061 211.776 384.692 209.271 383.4 206.946 382.108 204.622 380.894 202.53 379.758 200.67 377.484 197.158 375.624 194.187 374.178 191.76 372.731 189.332 371.672 187.24 371 185.484 370.328 183.727 369.993 182.126 369.993 180.68 369.993 177.58 371.078 174.765 373.248 172.234 375.418 169.703 378.104 167.921 381.308 166.888ZM496.423 163.168C497.249 164.098 498.463 165.364 500.065 166.965 501.667 168.566 503.656 170.452 506.033 172.621 504.793 174.378 503.398 176.16 501.848 177.968 500.298 179.776 498.593 181.609 496.733 183.469 494.459 181.609 492.444 179.879 490.688 178.278 488.931 176.676 487.381 175.152 486.038 173.706 487.691 172.156 489.396 170.478 491.153 168.67 492.909 166.862 494.666 165.028 496.423 163.168ZM517.968 160.844C518.794 161.774 520.034 163.013 521.688 164.563 523.341 166.113 525.356 168.024 527.733 170.297 525.149 173.913 521.998 177.529 518.278 181.144 516.108 179.388 514.144 177.735 512.388 176.186 510.631 174.636 509.081 173.086 507.738 171.537 509.184 170.194 510.76 168.618 512.465 166.81 514.17 165.002 516.004 163.013 517.968 160.844ZM665.863 129.076C666.586 131.865 667.464 134.887 668.498 138.141 669.531 141.396 670.668 144.676 671.908 147.982L666.948 151.856C667.258 158.158 667.438 165.286 667.49 173.241 667.542 181.196 667.49 190.029 667.335 199.74 667.18 209.452 666.844 220.144 666.328 231.818L657.338 233.058C657.028 222.934 656.64 213.816 656.175 205.707 655.71 197.597 655.245 190.029 654.78 183.004 654.315 175.979 653.824 169.212 653.308 162.704 652.791 156.195 652.171 149.428 651.448 142.403 651.138 139.82 651.577 137.547 652.765 135.585 653.953 133.622 655.71 132.098 658.035 131.013 660.36 129.928 662.969 129.283 665.863 129.076Z" fill="url(#fill1)" fill-rule="evenodd"/><text fill="#000000" fill-opacity="0" font-family="Arial,Arial_MSFontService,sans-serif" font-size="136.525" direction="rtl" writing-mode="rl-tb" x="671.908" y="248.535">استودیو</text><path d="M196.156 198.759 199.896 202.335 199.896 223.468 143.8 223.468 143.8 281.341 122.662 281.341 119.085 277.602 139.247 277.602 139.247 218.917 196.156 218.917ZM110.142 131.946 130.467 131.946 130.467 189.818 139.247 189.818 139.247 141.05 143.8 143.813 143.8 189.818 186.726 189.818 186.726 210.138 130.467 210.138 130.467 264.434 110.142 264.434 110.142 223.468 62.5009 223.468 59.5742 218.917 110.142 218.917 110.142 210.138 54.2084 210.138 54.2084 189.818 110.142 189.818Z" fill="url(#fill2)" fill-rule="evenodd"/><text fill="#000000" fill-opacity="0" font-family="Arial,Arial_MSFontService,sans-serif" font-size="149.394" x="54.2084" y="262.666">+</text></g></svg>